<svg width="17" height="17" viewBox="0 0 17 17" fill="none" xmlns="http://www.w3.org/2000/svg">
<g id="200 386" clip-path="url(#clip0_8_403)">
<g id="icon">
<path d="M3.06482 8.68956C3.1967 8.60598 3.33858 8.53674 3.48825 8.48405C3.48662 8.44487 3.48579 8.40548 3.48579 8.3659C3.48579 6.98172 4.49428 5.83309 5.81657 5.61468C5.31295 5.37756 4.84137 5.05058 4.42581 4.63346C3.33699 3.55048 2.86186 2.08177 2.99549 0.667465C3.03509 0.257019 2.45108 -0.183098 2.07989 0.0789941C1.85718 0.237238 1.64932 0.415263 1.45135 0.613068C-0.483783 2.54167 -0.483783 5.67688 1.45135 7.60548C1.9279 8.08531 2.47777 8.44667 3.06482 8.68956Z" fill="white"/>
<path d="M7.7106 3.631L7.34334 2.41335L8.53495 1.51245L7.03249 1.47065L6.53323 0.077494L6.03398 1.47065L4.53152 1.51245L5.72313 2.41335L5.29452 3.83437L6.53323 2.99383L7.60357 3.72012C7.6387 3.68978 7.67438 3.66007 7.7106 3.631Z" fill="white"/>
<path d="M12.3507 1.00627L11.5782 1.58675L11.8561 2.50623L11.0554 1.9629L10.2547 2.50623L10.5326 1.58675L9.76021 1.00627L10.7305 0.983049L11.0554 0.0774977L11.3804 0.983049L12.3507 1.00627Z" fill="white"/>
<path d="M13.9432 13.246H11.8579L12.457 12.1976C12.7226 11.7328 12.387 11.1545 11.8517 11.1545H11.1545V8.3659C11.1545 7.65099 10.2068 7.3993 9.85208 8.02002L6.86579 13.246H4.88011C3.72502 13.246 2.78863 12.3096 2.78863 11.1545C2.78863 10.243 3.3718 9.46762 4.18541 9.1812C4.18378 9.14203 4.18295 9.10264 4.18295 9.06306C4.18295 7.52294 5.43147 6.27443 6.97159 6.27443C7.01965 6.27443 7.06743 6.27564 7.1149 6.27805C7.5689 4.6668 9.04951 3.48579 10.806 3.48579C12.9236 3.48579 14.6403 5.2025 14.6403 7.32017C14.6403 7.46567 14.6322 7.60928 14.6164 7.75057C15.8313 8.05175 16.7318 9.1494 16.7318 10.4574C16.7318 11.9975 15.4833 13.246 13.9432 13.246Z" fill="white"/>
<path d="M7.66875 13.246H9.06306V16.7318L11.8517 11.8517H10.4574V8.3659L7.66875 13.246Z" fill="white"/>
</g>
</g>
<defs>
<clipPath id="clip0_8_403">
<rect width="16.7318" height="16.7318" fill="white"/>
</clipPath>
</defs>
</svg>
