<svg width="18" height="17" viewBox="0 0 18 17" fill="none" xmlns="http://www.w3.org/2000/svg">
<g id="392" clip-path="url(#clip0_8_427)">
<g id="icon">
<path d="M4.11212 8.67166C3.96589 8.72314 3.82728 8.79079 3.69844 8.87245C3.1249 8.63515 2.58769 8.28211 2.1221 7.81333C0.231516 5.92912 0.231516 2.86607 2.1221 0.981861C2.31551 0.788608 2.51859 0.614682 2.73618 0.46008C3.09883 0.204021 3.66939 0.634007 3.6307 1.03501C3.50015 2.41676 3.96434 3.85166 5.0281 4.90971C5.43409 5.31723 5.89482 5.63668 6.38685 5.86834C5.09499 6.08173 4.10972 7.20392 4.10972 8.55624C4.10972 8.59491 4.11053 8.63339 4.11212 8.67166Z" fill="white"/>
<path d="M7.87847 2.74071L8.23728 3.93032C8.20189 3.95872 8.16703 3.98776 8.13272 4.0174L7.08701 3.30783L5.87682 4.12902L6.29556 2.74071L5.13137 1.86054L6.59925 1.8197L7.08701 0.458614L7.57477 1.8197L9.04265 1.86054L7.87847 2.74071Z" fill="white"/>
<path d="M12.0159 1.93313L12.7705 1.36601L11.8226 1.34333L11.5051 0.458618L11.1876 1.34333L10.2397 1.36601L10.9944 1.93313L10.7229 2.83145L11.5051 2.30062L12.2874 2.83145L12.0159 1.93313Z" fill="white"/>
<path d="M13.6513 13.324H14.3264C15.8311 13.324 17.0508 12.1042 17.0508 10.5996C17.0508 9.3217 16.1711 8.24932 14.9842 7.95507C14.9996 7.81703 15.0075 7.67673 15.0075 7.53457C15.0075 5.46565 13.3303 3.78846 11.2614 3.78846C9.54537 3.78846 8.09884 4.94229 7.65529 6.51644C7.60892 6.5141 7.56223 6.51291 7.51528 6.51291C6.01061 6.51291 4.79083 7.73268 4.79083 9.23735C4.79083 9.27602 4.79164 9.3145 4.79323 9.35278C3.99835 9.6326 3.42861 10.3901 3.42861 11.2807C3.42861 12.4092 4.34344 13.324 5.47194 13.324H8.77414L11.6917 8.21832C12.0382 7.61189 12.9642 7.85779 12.9642 8.55624V11.2807H13.6453C14.1683 11.2807 14.4961 11.8457 14.2367 12.2997L13.6513 13.324Z" fill="white"/>
<path d="M9.55861 13.324L12.2831 8.55624V11.9618H13.6453L10.9208 16.7296V13.324H9.55861Z" fill="white"/>
<path d="M8.57217 16.7296H7.8206L7.89576 15.8971L7.20995 16.3796L6.83417 15.7174L7.58574 15.3674L6.83417 15.0173L7.20995 14.3551L7.89576 14.8376L7.8206 14.0051H8.57217L8.49702 14.8376L9.18283 14.3551L9.55861 15.0173L8.80704 15.3674L9.55861 15.7174L9.18283 16.3796L8.49702 15.8971L8.57217 16.7296Z" fill="white"/>
</g>
</g>
<defs>
<clipPath id="clip0_8_427">
<rect width="16.3467" height="16.3467" fill="white" transform="translate(0.704163 0.382904)"/>
</clipPath>
</defs>
</svg>
