<svg width="233" height="216" viewBox="0 0 233 216" fill="none" xmlns="http://www.w3.org/2000/svg">
<g id="icon">
<path d="M151.478 158.667H186.25C211.931 158.667 232.75 138.37 232.75 113.333C232.75 92.0702 217.734 74.2263 197.477 69.3301C197.74 67.0333 197.875 64.6987 197.875 62.3333C197.875 27.9076 169.249 0 133.937 0C104.649 0 79.9601 19.199 72.3897 45.3922C71.5982 45.3531 70.8015 45.3333 70 45.3333C44.3188 45.3333 23.5 65.6298 23.5 90.6667C23.5 91.3101 23.5137 91.9504 23.541 92.5872C9.9742 97.2434 0.25 109.848 0.25 124.667C0.25 143.444 15.8641 158.667 35.125 158.667H68.2359L118.032 73.7104C123.946 63.6198 139.75 67.7114 139.75 79.3333V124.667H151.375C160.301 124.667 165.897 134.067 161.468 141.623L151.478 158.667Z" fill="white"/>
<path d="M81.625 158.667L128.125 79.3333V136H151.375L104.875 215.333V158.667H81.625Z" fill="white"/>
</g>
</svg>
